<?xml version="1.0" encoding="utf-8"?><svg version="1.1" id="Layer_1" xmlns="http://www.w3.org/2000/svg" xmlns:xlink="http://www.w3.org/1999/xlink" x="0px" y="0px" viewBox="0 0 104.79 122.88" style="enable-background:new 0 0 104.79 122.88" xml:space="preserve"><style type="text/css">.st0{fill-rule:evenodd;clip-rule:evenodd;}</style><g><path class="st0" d="M57.75,48.1c15.76-1.85,28.53,9.42,28.53,25.18c0,15.76-12.77,30.03-28.53,31.88 c-15.76,1.85-28.53-9.42-28.53-25.18S41.99,49.95,57.75,48.1L57.75,48.1z M15.18,17.31L3.39,12.93l4.44,11.76l11.76,6.36 L15.18,17.31L15.18,17.31z M10.62,106.78c-0.37-0.21-0.51-0.69-0.29-1.06s0.69-0.51,1.06-0.29l7.52,4.29 c0.37,0.21,0.51,0.69,0.29,1.06c-0.21,0.37-0.69,0.51-1.06,0.29L10.62,106.78L10.62,106.78z M10.77,100.99 c-0.37-0.21-0.5-0.69-0.29-1.07c0.21-0.37,0.69-0.5,1.07-0.29l7.38,4.22c0.37,0.21,0.5,0.69,0.29,1.07 c-0.21,0.37-0.69,0.5-1.07,0.29L10.77,100.99L10.77,100.99z M10.11,63.4l0.16-13.01l8.26,3.48v13.84L10.11,63.4L10.11,63.4z M23.05,37.01l0.51,83.07l67.35-15.2l-0.83-66.39l-45.29,5.95l-12.8,1.68c-0.42,0.08-0.87-0.05-1.18-0.39L23.05,37.01L23.05,37.01z M21.53,122.59L6.17,110.81c-0.34-0.26-0.51-0.66-0.49-1.06L5.58,25.8L0.11,11.33c-0.13-0.29-0.15-0.63-0.03-0.95 C0.32,9.73,1.04,9.4,1.69,9.64l2.18,0.81l-0.2-0.74l-0.02-0.1c-0.23-0.9-0.2-1.64,0.05-2.24C4.01,6.62,4.59,6.14,5.4,5.9 c0.1-0.03,0.21-0.05,0.31-0.05l60.07-5.84c0.06-0.01,0.12-0.01,0.18,0c0.48,0.02,0.92,0.15,1.3,0.42c0.42,0.3,0.71,0.74,0.83,1.37 l1.74,12.49l7.34-13.64c0.29-0.55,0.94-0.79,1.51-0.59l20.55,5.61c0.66,0.18,1.05,0.87,0.87,1.53l-0.05,0.15l-7.25,17.47 l11.54,9.67c0.53,0.44,0.6,1.23,0.16,1.76c-0.23,0.27-0.54,0.42-0.86,0.44l-11.07,1.45l0.85,67.7c0.01,0.6-0.41,1.1-0.97,1.23 L22.6,122.85C22.21,122.94,21.82,122.83,21.53,122.59L21.53,122.59z M8.07,27.66l0.1,81.53l12.89,9.89l-0.58-84.72L8.07,27.66 L8.07,27.66z M16.61,15.17c0.34,0.13,0.63,0.41,0.75,0.78c0.75,2.28,1.49,4.56,2.22,6.83l48.03-6.26l-1.95-14L6,8.33 C5.96,8.44,5.97,8.65,6.06,8.98l0.62,2.31L16.61,15.17L16.61,15.17z M32.24,43.57l58.91-7.73l0.02,0l9.4-1.23l-9.65-8.08 l-66.68,8.07L32.24,43.57L32.24,43.57z M67.79,23.17l0-4.15l-47.4,6.18l2.05,6.55L22.52,32l0.08,0.26l45.19-5.78V23.17L67.79,23.17 z M70.29,26.19l15.27-1.63l-15.27-5.21V26.19L70.29,26.19z M71.23,16.93l19.36,6.71l6.61-15.93l-18.31-5L71.23,16.93L71.23,16.93z M57.75,72.68c2.18-0.26,3.95,1.3,3.95,3.48c0,2.18-1.77,4.16-3.95,4.41c-2.18,0.26-3.95-1.31-3.95-3.49 C53.8,74.91,55.57,72.94,57.75,72.68L57.75,72.68z M57.75,68.44c4.53-0.53,8.19,2.71,8.19,7.23c0,4.52-3.67,8.62-8.19,9.15 c-4.52,0.53-8.19-2.71-8.19-7.23C49.56,73.07,53.22,68.97,57.75,68.44L57.75,68.44z M57.75,66.62c5.53-0.65,10.01,3.31,10.01,8.84 c0,5.53-4.48,10.54-10.01,11.19c-5.53,0.65-10.01-3.31-10.01-8.83C47.74,72.28,52.22,67.27,57.75,66.62L57.75,66.62z"/></g></svg>