<svg xmlns="http://www.w3.org/2000/svg" shape-rendering="geometricPrecision" text-rendering="geometricPrecision" image-rendering="optimizeQuality" fill-rule="evenodd" clip-rule="evenodd" viewBox="0 0 512 341.38"><path d="M3.62 302.83c-2 0-3.62-1.63-3.62-3.62 0-1.04.14-2.05.39-3.06 5.8-46 41.83-58.27 67.38-64.9 12.78-3.32 44.59-15.94 31.92-33.3-7.1-9.74-13.55-16.58-19.98-26.87-4.65-6.86-7.1-12.99-7.1-17.89 0-5.23 2.77-11.35 8.33-12.74-.73-10.53-.98-24.38-.49-35.65 1.77-19.35 15.64-33.61 33.57-39.93 7.1-2.7 3.67-13.49 11.5-13.72 18.38-.5 48.51 15.19 60.28 27.92 6.85 7.35 11.26 17.15 12 30.14l-.74 32.46c3.43.98 5.64 3.19 6.62 6.62.98 3.92 0 9.31-3.43 16.91 0 .24-.25.24-.25.48-7.56 12.47-15.44 20.73-24.1 32.27-3.86 5.16-3.1 10.09.1 14.53-4.51 2.63-8.91 5.66-13.15 9.22-16.88 14.17-29.89 35.31-34.39 69.06l-.51 2.98c-.25 1.93-.38 3.51-.38 4.7 0 1.49.12 2.96.36 4.39H3.62zm439.68-78.08c4.81 4.82 3.04 12.27-1.98 16.37-4.85 3.91-13.62 5.8-18.63 1.2-5.05-4.7-3.04-12.26 1.8-16.39 4.66-3.93 13.88-6.09 18.81-1.18zm-28.01 61.49h4.12v-26.83h-7.81c0-10.64 19.53-3.73 33.88-7.36v34.19h5.44v11.41h-35.63v-11.41zm15.97-106.33c22.26 0 42.46 9.05 57.07 23.67 14.63 14.59 23.67 34.78 23.67 57.07s-9.04 42.48-23.65 57.09l-.48.45c-14.58 14.34-34.57 23.19-56.61 23.19-22.29 0-42.48-9.04-57.08-23.64l-.45-.49c-14.35-14.58-23.21-34.58-23.21-56.6 0-22.27 9.05-42.45 23.65-57.05 14.61-14.65 34.81-23.69 57.09-23.69zm45.32 35.4c-11.57-11.58-27.59-18.75-45.32-18.75-17.69 0-33.73 7.18-45.32 18.77-11.59 11.57-18.77 27.61-18.77 45.32 0 17.53 7.01 33.4 18.37 44.94l.4.38c11.6 11.59 27.62 18.76 45.32 18.76 17.52 0 33.39-7.01 44.95-18.36l.38-.4c11.59-11.59 18.76-27.62 18.76-45.32 0-17.69-7.18-33.73-18.77-45.34zm-322.65 87.55c-2.44 0-4.42-1.97-4.42-4.42 0-1.25.18-2.5.48-3.73 7.08-56.13 40.73-68.33 71.87-76.34 14.96-3.84 44.77-18.85 41.16-38.2-7.54-6.99-15.02-16.65-16.34-31.06l-.9.02c-2.09-.03-4.12-.51-5.99-1.58-4.17-2.36-6.44-6.9-7.54-12.07-2.32-15.79-2.9-23.86 5.52-27.38l.07-.03c-1.04-19.48 2.25-48.14-17.76-54.2 39.5-48.81 85.04-75.37 119.24-31.94 38.09 2 55.09 55.96 31.43 86.17h-1c8.42 3.52 7.15 12.58 5.53 27.38-1.1 5.17-3.38 9.71-7.55 12.07-1.87 1.07-3.9 1.55-5.99 1.58l-.91-.02c-1.3 14.41-8.81 24.07-16.35 31.06-1.22 6.55 1.38 12.58 5.93 17.87-13.42 17.3-21.42 39.03-21.42 62.61 0 15.05 3.26 29.35 9.11 42.21H153.93z"/></svg>