<?xml version="1.0" encoding="UTF-8" standalone="no" ?>
<!DOCTYPE svg PUBLIC "-//W3C//DTD SVG 1.1//EN" "http://www.w3.org/Graphics/SVG/1.1/DTD/svg11.dtd">
<svg xmlns="http://www.w3.org/2000/svg" xmlns:xlink="http://www.w3.org/1999/xlink" version="1.1" width="1080" height="1080" viewBox="0 0 1080 1080" xml:space="preserve">
<desc>Created with Fabric.js 5.2.4</desc>
<defs>
</defs>
<g transform="matrix(1 0 0 1 540 540)" id="616ac122-726a-4965-8dc6-92b2c78e98e7"  >
<rect style="stroke: none; stroke-width: 1; stroke-dasharray: none; stroke-linecap: butt; stroke-dashoffset: 0; stroke-linejoin: miter; stroke-miterlimit: 4; fill: rgb(255,255,255); fill-rule: nonzero; opacity: 1; visibility: hidden;" vector-effect="non-scaling-stroke"  x="-540" y="-540" rx="0" ry="0" width="1080" height="1080" />
</g>
<g transform="matrix(1 0 0 1 540 540)" id="4c7f9276-daa3-4018-beac-4e205f1e5f42"  >
</g>
<g transform="matrix(1 0 0 1 542.5 542.5)" id="a22984ac-50f8-4786-b7ea-27fca202da77"  >
<path style="stroke: rgb(255,165,0); stroke-width: 5; stroke-dasharray: none; stroke-linecap: butt; stroke-dashoffset: 0; stroke-linejoin: miter; stroke-miterlimit: 4; fill: rgb(255,165,0); fill-rule: nonzero; opacity: 1;" vector-effect="non-scaling-stroke"  transform=" translate(-61.44, -61.44)" d="M 97.977 18.705 C 97.647 18.375 97.307 18.136999999999997 96.95700000000001 17.988999999999997 C 96.629 17.849999999999998 96.24600000000001 17.781999999999996 95.807 17.781999999999996 C 95.366 17.781999999999996 94.97500000000001 17.851999999999997 94.643 17.992999999999995 C 94.299 18.137999999999995 93.967 18.371999999999996 93.649 18.694999999999993 L 93.628 18.715999999999994 L 87.421 24.903999999999993 C 86.491 25.828999999999994 85.054 25.93199999999999 84.01100000000001 25.21699999999999 C 83.281 24.74499999999999 82.50300000000001 24.289999999999992 81.68700000000001 23.848999999999993 C 80.82200000000002 23.380999999999993 79.97400000000002 22.96099999999999 79.14600000000002 22.580999999999992 C 78.28300000000002 22.186999999999994 77.40200000000002 21.815999999999992 76.50500000000001 21.467999999999993 C 75.69200000000001 21.151999999999994 74.78600000000002 20.82999999999999 73.79800000000002 20.503999999999994 C 72.66700000000002 20.130999999999993 71.94800000000002 19.078999999999994 71.94800000000002 17.947999999999993 L 71.94800000000002 17.947999999999993 L 71.94800000000002 8.43 C 71.94800000000002 7.973999999999999 71.87600000000002 7.571 71.73300000000002 7.22 C 71.59000000000002 6.872999999999999 71.37200000000001 6.55 71.07100000000001 6.25 C 70.778 5.957 70.46000000000001 5.74 70.11200000000001 5.599 C 69.76200000000001 5.456 69.358 5.385 68.90100000000001 5.385 L 56.956 5.385 C 56.533 5.385 56.158 5.452999999999999 55.830000000000005 5.5889999999999995 C 55.482000000000006 5.731999999999999 55.141000000000005 5.965999999999999 54.804 6.292 L 54.8 6.295 C 54.504 6.591 54.285999999999994 6.906 54.145999999999994 7.241 C 54.002 7.584 53.93 7.98 53.93 8.43 L 53.93 17.144 C 53.93 18.468999999999998 52.973 19.57 51.713 19.794999999999998 C 50.756 20.023 49.872 20.258999999999997 49.067 20.505999999999997 C 48.185 20.775999999999996 47.298 21.083 46.409 21.429999999999996 C 46.365 21.446999999999996 46.321 21.462999999999997 46.277 21.476999999999997 C 45.5 21.778999999999996 44.681 22.128999999999998 43.821 22.525999999999996 C 42.946999999999996 22.928999999999995 42.132999999999996 23.337999999999997 41.379 23.748999999999995 C 40.315999999999995 24.327999999999996 39.034 24.112999999999996 38.214 23.305999999999994 L 38.213 23.306999999999995 L 31.339000000000002 16.531999999999996 C 31.318 16.510999999999996 31.297 16.489999999999995 31.276000000000003 16.468999999999998 L 31.276000000000003 16.47 C 30.983000000000004 16.16 30.675000000000004 15.932999999999998 30.352000000000004 15.791999999999998 C 30.042000000000005 15.656999999999998 29.675000000000004 15.587999999999997 29.247000000000003 15.587999999999997 C 28.822000000000003 15.587999999999997 28.442000000000004 15.659999999999997 28.108000000000004 15.802999999999997 C 27.742000000000004 15.958999999999998 27.392000000000003 16.202999999999996 27.056000000000004 16.531999999999996 L 27.054000000000006 16.533999999999995 L 18.715000000000003 24.891999999999996 L 18.710000000000004 24.897999999999996 L 18.715000000000003 24.902999999999995 C 18.373000000000005 25.244999999999994 18.131000000000004 25.584999999999994 17.988000000000003 25.922999999999995 C 17.849000000000004 26.250999999999994 17.780000000000005 26.633999999999993 17.780000000000005 27.071999999999996 C 17.780000000000005 27.513999999999996 17.850000000000005 27.903999999999996 17.991000000000003 28.237999999999996 C 18.136000000000003 28.580999999999996 18.369000000000003 28.912999999999997 18.693000000000005 29.230999999999995 L 18.714000000000006 29.251999999999995 L 24.902000000000005 35.459999999999994 C 25.827000000000005 36.38999999999999 25.930000000000003 37.82699999999999 25.215000000000003 38.86999999999999 C 24.743000000000002 39.60099999999999 24.288000000000004 40.37799999999999 23.848000000000003 41.19399999999999 C 23.380000000000003 42.05999999999999 22.96 42.90599999999999 22.580000000000002 43.73599999999999 C 22.185000000000002 44.59799999999999 21.814 45.47999999999999 21.465000000000003 46.37699999999999 C 21.149000000000004 47.188999999999986 20.828000000000003 48.094999999999985 20.502000000000002 49.08299999999999 C 20.129 50.21499999999999 19.076000000000004 50.93299999999999 17.946 50.93299999999999 L 17.946 50.93399999999999 L 8.431 50.93399999999999 C 7.972999999999999 50.93399999999999 7.570999999999999 51.00499999999999 7.219999999999999 51.14699999999999 C 6.873999999999999 51.288999999999994 6.5539999999999985 51.50499999999999 6.261999999999999 51.797999999999995 L 6.251 51.81 L 6.251 51.81 C 5.958 52.103 5.7410000000000005 52.422000000000004 5.599 52.768 C 5.456 53.119 5.386 53.522 5.386 53.979 L 5.386 65.925 C 5.386 66.347 5.453 66.723 5.589 67.05 C 5.7330000000000005 67.398 5.9670000000000005 67.73899999999999 6.293 68.077 L 6.296 68.079 C 6.591 68.375 6.907 68.594 7.2410000000000005 68.73299999999999 C 7.585000000000001 68.877 7.981000000000001 68.94899999999998 8.431000000000001 68.94899999999998 L 17.144 68.94899999999998 C 18.468999999999998 68.94899999999998 19.57 69.90599999999998 19.794999999999998 71.16699999999999 C 20.023 72.12299999999999 20.258999999999997 73.00799999999998 20.505999999999997 73.81299999999999 C 20.776999999999997 74.695 21.083 75.58099999999999 21.429999999999996 76.46999999999998 C 21.755999999999997 77.31699999999998 22.125999999999998 78.19699999999999 22.537999999999997 79.10899999999998 C 22.958999999999996 80.04199999999999 23.370999999999995 80.89199999999998 23.770999999999997 81.66099999999999 C 24.327999999999996 82.72699999999999 24.096999999999998 83.99699999999999 23.284999999999997 84.80399999999999 L 23.286999999999995 84.80599999999998 L 16.510999999999996 91.56199999999998 L 16.467999999999996 91.60399999999998 L 16.468999999999998 91.60399999999998 C 16.159 91.89799999999998 15.931999999999997 92.20599999999999 15.791999999999998 92.52799999999999 C 15.655999999999999 92.838 15.587999999999997 93.20599999999999 15.587999999999997 93.63399999999999 C 15.587999999999997 94.05899999999998 15.659999999999997 94.43799999999999 15.801999999999998 94.77199999999999 C 15.957999999999998 95.13799999999999 16.201999999999998 95.48899999999999 16.531999999999996 95.824 L 24.840999999999994 104.229 C 25.165999999999993 104.53 25.504999999999995 104.75 25.859999999999992 104.889 C 26.215999999999994 105.03 26.619999999999994 105.09899999999999 27.071999999999992 105.09899999999999 C 27.52799999999999 105.09899999999999 27.938999999999993 105.02799999999999 28.30099999999999 104.88499999999999 C 28.64899999999999 104.74799999999999 28.975999999999992 104.538 29.278999999999993 104.25399999999999 L 35.437999999999995 97.99699999999999 C 36.367 97.05299999999998 37.821999999999996 96.93999999999998 38.876 97.66799999999999 C 39.605 98.13799999999999 40.379999999999995 98.591 41.193999999999996 99.02999999999999 C 42.059999999999995 99.49899999999998 42.906 99.91899999999998 43.736 100.29799999999999 C 44.598 100.69399999999999 45.48 101.06499999999998 46.376999999999995 101.41299999999998 C 47.18899999999999 101.72799999999998 48.093999999999994 102.04999999999998 49.083 102.37599999999998 C 50.214999999999996 102.74899999999998 50.933 103.80199999999998 50.933 104.93199999999997 L 50.934 104.93199999999997 L 50.934 114.44999999999997 C 50.934 114.90599999999998 51.004999999999995 115.30899999999997 51.147999999999996 115.65999999999997 C 51.29 116.00699999999996 51.50599999999999 116.32599999999996 51.799 116.61899999999997 L 51.804 116.62499999999997 L 51.809000000000005 116.61899999999997 C 52.39600000000001 117.20599999999997 53.11600000000001 117.49499999999998 53.978 117.49499999999998 L 65.922 117.49499999999998 C 66.346 117.49499999999998 66.721 117.42799999999998 67.04899999999999 117.29199999999997 C 67.39699999999999 117.14799999999997 67.73799999999999 116.91399999999997 68.074 116.58799999999998 L 68.078 116.58499999999998 C 68.373 116.28899999999997 68.592 115.97399999999998 68.732 115.63999999999999 C 68.877 115.29599999999999 68.949 114.90099999999998 68.949 114.451 L 68.949 105.73599999999999 C 68.949 104.41199999999999 69.904 103.30999999999999 71.166 103.08599999999998 C 72.121 102.85799999999999 73.006 102.62099999999998 73.812 102.37499999999999 C 74.693 102.10399999999998 75.58 101.79799999999999 76.468 101.45199999999998 C 77.316 101.12499999999999 78.197 100.75499999999998 79.111 100.34299999999999 C 80.04100000000001 99.92199999999998 80.89200000000001 99.511 81.658 99.11099999999999 C 82.726 98.55399999999999 83.996 98.78599999999999 84.803 99.597 L 84.80499999999999 99.595 L 91.56099999999999 106.37 L 91.60199999999999 106.41300000000001 L 91.60199999999999 106.412 C 91.89899999999999 106.724 92.207 106.95 92.52799999999999 107.09 C 92.84199999999998 107.22500000000001 93.22099999999999 107.294 93.67299999999999 107.294 C 94.11599999999999 107.294 94.50099999999999 107.222 94.83299999999998 107.079 C 95.16699999999999 106.934 95.47799999999998 106.711 95.76099999999998 106.41199999999999 C 95.79199999999999 106.37799999999999 95.82499999999997 106.345 95.86099999999998 106.312 L 104.22999999999998 98.03999999999999 C 104.52899999999998 97.716 104.74999999999997 97.37599999999999 104.88799999999998 97.02099999999999 C 105.02899999999998 96.66499999999999 105.09899999999998 96.25999999999999 105.09899999999998 95.80799999999999 C 105.09899999999998 95.35199999999999 105.02899999999998 94.94099999999999 104.88599999999998 94.579 C 104.74699999999999 94.231 104.53799999999998 93.90499999999999 104.25299999999999 93.60199999999999 L 97.99699999999999 87.442 C 97.05199999999999 86.51299999999999 96.93999999999998 85.059 97.66699999999999 84.00399999999999 C 98.13799999999999 83.27499999999999 98.591 82.49999999999999 99.02999999999999 81.68699999999998 C 99.49899999999998 80.82199999999999 99.91899999999998 79.97499999999998 100.29799999999999 79.14499999999998 C 100.69299999999998 78.28299999999999 101.064 77.40099999999998 101.41299999999998 76.50399999999998 C 101.72699999999998 75.69199999999998 102.04999999999998 74.78599999999997 102.37599999999998 73.79699999999998 C 102.74899999999998 72.66499999999998 103.80199999999998 71.94699999999999 104.93299999999998 71.94699999999999 L 104.93299999999998 71.94599999999998 L 114.44899999999998 71.94599999999998 C 114.90599999999998 71.94599999999998 115.30999999999999 71.87499999999999 115.65999999999998 71.73199999999999 C 116.00599999999999 71.58999999999999 116.32599999999998 71.37399999999998 116.61899999999999 71.08199999999998 L 116.62899999999999 71.07099999999998 L 116.62899999999999 71.07099999999998 C 116.922 70.77699999999999 117.14099999999999 70.45799999999998 117.28099999999999 70.11099999999999 C 117.42399999999999 69.761 117.49399999999999 69.35799999999999 117.49399999999999 68.901 L 117.49399999999999 56.955 C 117.49399999999999 56.533 117.42799999999998 56.157 117.29099999999998 55.829 C 117.14799999999998 55.482 116.91399999999999 55.14 116.58799999999998 54.802 L 116.58399999999997 54.799 C 116.28899999999997 54.503 115.97299999999997 54.285 115.63899999999998 54.144999999999996 C 115.29699999999998 54.001 114.90099999999998 53.928999999999995 114.44999999999999 53.928999999999995 L 105.737 53.928999999999995 C 104.395 53.928999999999995 103.28399999999999 52.949999999999996 103.079 51.666999999999994 C 102.868 50.824 102.63 49.968999999999994 102.36 49.10099999999999 C 102.1 48.267999999999994 101.796 47.38699999999999 101.44 46.45599999999999 C 101.422 46.41099999999999 101.407 46.36499999999999 101.393 46.31899999999999 C 101.055 45.43399999999999 100.709 44.60199999999999 100.354 43.822999999999986 C 99.969 42.97999999999999 99.56099999999999 42.164999999999985 99.129 41.37699999999999 C 98.551 40.313999999999986 98.766 39.03199999999999 99.572 38.21199999999999 L 99.572 38.21099999999999 L 106.34700000000001 31.336999999999993 C 106.36800000000001 31.315999999999992 106.388 31.29499999999999 106.41000000000001 31.273999999999994 L 106.41000000000001 31.273999999999994 C 106.72100000000002 30.980999999999995 106.94700000000002 30.672999999999995 107.08800000000001 30.350999999999992 C 107.22300000000001 30.040999999999993 107.293 29.673999999999992 107.293 29.24599999999999 C 107.293 28.82099999999999 107.221 28.440999999999992 107.078 28.106999999999992 C 106.922 27.740999999999993 106.678 27.39099999999999 106.348 27.054999999999993 L 106.346 27.052999999999994 L 97.98700000000001 18.71399999999999 L 97.977 18.705 L 97.977 18.705 L 97.977 18.705 z M 99.039 13.044 C 100.041 13.467 100.95100000000001 14.086 101.771 14.906 L 101.773 14.907 L 110.154 23.269 L 110.175 23.29 C 110.982 24.11 111.599 25.012999999999998 112.021 26.003 C 112.45700000000001 27.024 112.677 28.105 112.677 29.246 C 112.677 30.404 112.45200000000001 31.485999999999997 112.009 32.497 C 111.577 33.489 110.946 34.371 110.13 35.15 L 104.76299999999999 40.595 C 104.92099999999999 40.924 105.079 41.257 105.23199999999999 41.594 C 105.66199999999999 42.532000000000004 106.05599999999998 43.472 106.41399999999999 44.413000000000004 C 106.43399999999998 44.455000000000005 106.451 44.498000000000005 106.46699999999998 44.542 C 106.82399999999998 45.479 107.16599999999998 46.475 107.49199999999999 47.523 C 107.597 47.861000000000004 107.69899999999998 48.201 107.797 48.544000000000004 L 114.449 48.544000000000004 C 115.605 48.544000000000004 116.687 48.75600000000001 117.701 49.18000000000001 C 118.69699999999999 49.59700000000001 119.597 50.212 120.39999999999999 51.02100000000001 L 120.457 51.07800000000001 C 121.24799999999999 51.89600000000001 121.848 52.79800000000001 122.256 53.78800000000001 C 122.674 54.79500000000001 122.881 55.85000000000001 122.881 56.95500000000001 L 122.881 68.9 C 122.881 70.049 122.678 71.125 122.268 72.13000000000001 C 121.858 73.13300000000001 121.247 74.04400000000001 120.43 74.86300000000001 L 120.426 74.86600000000001 L 120.42 74.87300000000002 L 120.416 74.87700000000002 C 119.596 75.69400000000002 118.68599999999999 76.30700000000003 117.67999999999999 76.71700000000003 C 116.67399999999999 77.12600000000003 115.598 77.33000000000003 114.44999999999999 77.33000000000003 L 106.841 77.33000000000003 C 106.708 77.68800000000003 106.57 78.05800000000002 106.42099999999999 78.43600000000002 C 106.03999999999999 79.41500000000002 105.62799999999999 80.39400000000002 105.181 81.37200000000001 C 104.718 82.38300000000001 104.247 83.33800000000001 103.767 84.22900000000001 C 103.609 84.52100000000002 103.447 84.81200000000001 103.28099999999999 85.10300000000001 L 108.03099999999999 89.77900000000001 C 108.06599999999999 89.81200000000001 108.09899999999999 89.84500000000001 108.13499999999999 89.88100000000001 C 108.91399999999999 90.70500000000001 109.49999999999999 91.62000000000002 109.895 92.62000000000002 C 110.291 93.62400000000002 110.487 94.68800000000002 110.487 95.80600000000001 C 110.487 96.92000000000002 110.292 97.97500000000001 109.899 98.97500000000001 C 109.506 99.97200000000001 108.926 100.88300000000001 108.155 101.709 L 108.155 101.708 C 108.128 101.736 108.1 101.766 108.071 101.794 L 99.64099999999999 110.127 C 98.85 110.95599999999999 97.95899999999999 111.58999999999999 96.95899999999999 112.02 C 95.94899999999998 112.456 94.85699999999999 112.67699999999999 93.67599999999999 112.67699999999999 C 92.51999999999998 112.67699999999999 91.42999999999999 112.451 90.40599999999999 112.00999999999999 C 89.392 111.571 88.496 110.93599999999999 87.71499999999999 110.112 L 82.371 104.75399999999999 C 82.014 104.92599999999999 81.664 105.08899999999998 81.324 105.243 C 80.414 105.65299999999999 79.441 106.05799999999999 78.408 106.457 C 77.437 106.835 76.424 107.184 75.373 107.506 C 75.02300000000001 107.613 74.67800000000001 107.715 74.33800000000001 107.812 L 74.33800000000001 114.45 C 74.33800000000001 115.605 74.12500000000001 116.688 73.70100000000001 117.70100000000001 C 73.283 118.69800000000001 72.67 119.59700000000001 71.85900000000001 120.40100000000001 L 71.802 120.45900000000002 C 70.98400000000001 121.24800000000002 70.081 121.84700000000002 69.093 122.25700000000002 C 68.08500000000001 122.67400000000002 67.03 122.88100000000001 65.925 122.88100000000001 L 53.979 122.88100000000001 C 51.629999999999995 122.88100000000001 49.646 122.07100000000001 48.001999999999995 120.42700000000002 L 48.007 120.42200000000003 C 47.187 119.60100000000003 46.571999999999996 118.68800000000003 46.162 117.68100000000003 C 45.752 116.67500000000003 45.548 115.60000000000002 45.548 114.45100000000002 L 45.548 106.84200000000003 C 45.189 106.70900000000003 44.82 106.57000000000002 44.441 106.42200000000003 C 43.463 106.04100000000003 42.484 105.62900000000002 41.506 105.18100000000003 C 40.495 104.71900000000002 39.54 104.24700000000003 38.648 103.76600000000002 C 38.357000000000006 103.60900000000002 38.066 103.44700000000002 37.775000000000006 103.28100000000002 L 33.099000000000004 108.03100000000002 C 33.066 108.06600000000002 33.032000000000004 108.10000000000002 32.99700000000001 108.13400000000001 C 32.17300000000001 108.91500000000002 31.258000000000006 109.50100000000002 30.258000000000006 109.89500000000001 C 29.254000000000005 110.29100000000001 28.190000000000005 110.48800000000001 27.072000000000006 110.48800000000001 C 25.958000000000006 110.48800000000001 24.902000000000008 110.29300000000002 23.903000000000006 109.89900000000002 C 22.906000000000006 109.50600000000001 21.996000000000006 108.92600000000002 21.169000000000004 108.15600000000002 L 21.170000000000005 108.15400000000002 C 21.141000000000005 108.12800000000003 21.112000000000005 108.10000000000002 21.085000000000004 108.07100000000003 L 12.704000000000004 99.59300000000003 C 11.898000000000003 98.77300000000004 11.281000000000004 97.86900000000003 10.859000000000004 96.87900000000003 C 10.424000000000003 95.85700000000003 10.203000000000003 94.77700000000003 10.203000000000003 93.63700000000003 C 10.203000000000003 92.47900000000003 10.428000000000003 91.39700000000003 10.870000000000003 90.38500000000003 C 11.307000000000002 89.38600000000004 11.941000000000003 88.49900000000004 12.767000000000003 87.71500000000003 L 18.126000000000005 82.37100000000004 C 17.954000000000004 82.01400000000004 17.790000000000006 81.66400000000004 17.636000000000006 81.32100000000004 C 17.225000000000005 80.41200000000003 16.821000000000005 79.44100000000005 16.423000000000005 78.40900000000003 C 16.045000000000005 77.43800000000003 15.695000000000006 76.42500000000004 15.373000000000005 75.37300000000003 C 15.266000000000005 75.02200000000003 15.164000000000005 74.67800000000004 15.067000000000005 74.33800000000004 L 8.431 74.33800000000004 C 7.2749999999999995 74.33800000000004 6.191999999999999 74.12500000000004 5.18 73.70100000000004 C 4.1819999999999995 73.28400000000003 3.2829999999999995 72.67000000000003 2.4799999999999995 71.86000000000004 L 2.422 71.8 C 1.6320000000000001 70.983 1.0330000000000001 70.08 0.6240000000000001 69.091 C 0.207 68.083 0 67.028 0 65.925 L 0 53.979 C 0 52.83 0.204 51.754 0.614 50.749 C 1.024 49.744 1.6349999999999998 48.833000000000006 2.453 48.014 L 2.4539999999999997 48.013000000000005 L 2.4599999999999995 48.008 L 2.4649999999999994 48.003 C 3.2849999999999993 47.185 4.194999999999999 46.573 5.201 46.163 C 6.2059999999999995 45.753 7.282 45.55 8.431 45.55 L 16.04 45.55 C 16.172 45.190999999999995 16.311999999999998 44.821999999999996 16.46 44.443 C 16.84 43.464999999999996 17.253 42.486 17.701 41.507 C 18.163 40.495999999999995 18.634 39.541 19.116 38.65 C 19.276 38.353 19.442 38.056 19.612 37.759 L 14.930999999999997 33.063 L 14.928999999999997 33.062000000000005 C 14.101999999999997 32.249 13.475999999999997 31.334000000000003 13.048999999999996 30.323000000000004 C 12.611999999999997 29.291000000000004 12.395999999999995 28.205000000000005 12.395999999999995 27.074000000000005 C 12.395999999999995 25.945000000000004 12.610999999999995 24.869000000000007 13.044999999999995 23.842000000000006 C 13.474999999999994 22.825000000000006 14.094999999999995 21.910000000000007 14.907999999999994 21.097000000000005 L 14.912999999999995 21.102000000000004 L 23.268999999999995 12.726000000000004 L 23.289999999999996 12.705000000000004 C 24.109999999999996 11.899000000000004 25.012999999999995 11.282000000000004 26.002999999999997 10.860000000000003 C 27.024999999999995 10.425000000000002 28.104999999999997 10.203000000000003 29.245999999999995 10.203000000000003 C 30.402999999999995 10.203000000000003 31.484999999999996 10.428000000000003 32.49699999999999 10.870000000000003 C 33.48899999999999 11.303000000000003 34.370999999999995 11.933000000000003 35.14999999999999 12.750000000000004 L 40.590999999999994 18.112000000000002 C 40.91799999999999 17.950000000000003 41.24399999999999 17.795 41.568999999999996 17.645000000000003 C 42.406 17.259000000000004 43.33 16.870000000000005 44.340999999999994 16.478 C 44.38399999999999 16.458000000000002 44.428 16.44 44.471999999999994 16.423000000000002 C 45.44299999999999 16.045 46.456999999999994 15.695000000000002 47.50899999999999 15.373000000000001 C 47.858999999999995 15.266000000000002 48.20399999999999 15.164000000000001 48.54399999999999 15.067000000000002 L 48.54399999999999 8.43 C 48.54399999999999 7.2749999999999995 48.75699999999999 6.192 49.18099999999999 5.18 C 49.59799999999999 4.1819999999999995 50.212999999999994 3.2829999999999995 51.02199999999999 2.4789999999999996 L 51.07899999999999 2.4219999999999997 C 51.89699999999999 1.6319999999999997 52.79899999999999 1.0339999999999998 53.788 0.6249999999999998 C 54.796 0.207 55.851 0 56.956 0 L 68.9 0 C 70.048 0 71.125 0.203 72.13000000000001 0.613 C 73.14000000000001 1.025 74.05400000000002 1.64 74.87800000000001 2.463 C 75.69200000000001 3.279 76.30600000000001 4.191 76.71800000000002 5.2 C 77.12800000000001 6.205 77.33100000000002 7.281000000000001 77.33100000000002 8.429 L 77.33100000000002 16.039 C 77.69000000000001 16.172 78.05800000000002 16.312 78.43800000000002 16.459000000000003 C 79.41500000000002 16.839000000000002 80.39300000000001 17.252000000000002 81.37200000000001 17.699 C 82.38400000000001 18.161 83.33900000000001 18.633000000000003 84.22900000000001 19.115000000000002 C 84.52800000000002 19.276000000000003 84.82500000000002 19.441000000000003 85.12200000000001 19.611 L 89.81700000000001 14.93 L 89.819 14.929 C 90.632 14.102 91.548 13.476 92.557 13.049 C 93.59 12.612 94.674 12.395999999999999 95.805 12.395999999999999 C 96.936 12.396 98.012 12.61 99.039 13.044 L 99.039 13.044 z M 61.44 35.346 C 63.221 35.346 64.959 35.516 66.654 35.854 C 68.32 36.187 69.972 36.698 71.607 37.388 L 71.625 37.396 L 71.629 37.388 C 73.19 38.062 74.67 38.867 76.07000000000001 39.805 C 77.45700000000001 40.734 78.742 41.783 79.92 42.95 L 79.93 42.961000000000006 L 79.93 42.961000000000006 C 81.09800000000001 44.14000000000001 82.147 45.42400000000001 83.07600000000001 46.812000000000005 C 84.01400000000001 48.212 84.81800000000001 49.69200000000001 85.492 51.25300000000001 C 85.52300000000001 51.327000000000005 85.551 51.40100000000001 85.57600000000001 51.476000000000006 C 86.22200000000001 53.04500000000001 86.70700000000001 54.62800000000001 87.025 56.227000000000004 C 87.36500000000001 57.923 87.533 59.660000000000004 87.533 61.440000000000005 C 87.533 63.221000000000004 87.365 64.959 87.025 66.65400000000001 C 86.69300000000001 68.32100000000001 86.18100000000001 69.971 85.492 71.60700000000001 L 85.48400000000001 71.62500000000001 L 85.492 71.62900000000002 C 84.818 73.19000000000003 84.013 74.66900000000003 83.07600000000001 76.06900000000002 C 82.146 77.45700000000002 81.09700000000001 78.74100000000001 79.93 79.92000000000002 L 79.92 79.93100000000001 L 79.92 79.93100000000001 C 78.74 81.09900000000002 77.45700000000001 82.14800000000001 76.068 83.07700000000001 C 74.67 84.01500000000001 73.189 84.81900000000002 71.62899999999999 85.49300000000001 C 71.55499999999999 85.52400000000002 71.481 85.55300000000001 71.404 85.57700000000001 C 69.836 86.22400000000002 68.252 86.70800000000001 66.654 87.02700000000002 C 64.959 87.36600000000001 63.22 87.53500000000001 61.44 87.53500000000001 C 59.659 87.53500000000001 57.922 87.36600000000001 56.227 87.02700000000002 C 54.559999999999995 86.69400000000002 52.909 86.18200000000002 51.272999999999996 85.49300000000001 L 51.254999999999995 85.48500000000001 L 51.251999999999995 85.49300000000001 C 49.690999999999995 84.819 48.209999999999994 84.01400000000001 46.81099999999999 83.07700000000001 C 45.422999999999995 82.14800000000001 44.138999999999996 81.09900000000002 42.96099999999999 79.93100000000001 L 42.95099999999999 79.92000000000002 L 42.95099999999999 79.92000000000002 C 41.782999999999994 78.74000000000001 40.73299999999999 77.45700000000002 39.80499999999999 76.06800000000001 C 38.867999999999995 74.66900000000001 38.062999999999995 73.18800000000002 37.38999999999999 71.62900000000002 C 37.358 71.55500000000002 37.32999999999999 71.48100000000002 37.30499999999999 71.40500000000002 C 36.657999999999994 69.83600000000001 36.17399999999999 68.25300000000001 35.85499999999999 66.65400000000001 C 35.51699999999999 64.95900000000002 35.34699999999999 63.22100000000001 35.34699999999999 61.44000000000001 C 35.34699999999999 59.65900000000001 35.515999999999984 57.92200000000001 35.85499999999999 56.22700000000001 C 36.18799999999999 54.56000000000001 36.69999999999999 52.90900000000001 37.389999999999986 51.27400000000001 L 37.396999999999984 51.25600000000001 L 37.389999999999986 51.25300000000001 C 38.06299999999999 49.69200000000001 38.868999999999986 48.21200000000001 39.804999999999986 46.81300000000001 C 40.73399999999999 45.42400000000001 41.78299999999999 44.14100000000001 42.950999999999986 42.96100000000001 L 42.96199999999999 42.951000000000015 L 42.96199999999999 42.951000000000015 C 44.139999999999986 41.78400000000001 45.42399999999999 40.735000000000014 46.81099999999999 39.80600000000001 C 48.21099999999999 38.869000000000014 49.69199999999999 38.06300000000001 51.25299999999999 37.38900000000001 C 51.32699999999999 37.35700000000001 51.400999999999996 37.32900000000001 51.47699999999999 37.30500000000001 C 53.04599999999999 36.65800000000001 54.627999999999986 36.175000000000004 56.22699999999999 35.85600000000001 C 57.922 35.516 59.659 35.346 61.44 35.346 L 61.44 35.346 z M 65.602 41.134 C 64.25800000000001 40.865 62.87200000000001 40.731 61.440000000000005 40.731 C 60.00900000000001 40.731 58.623000000000005 40.865 57.278000000000006 41.134 C 55.97200000000001 41.395 54.72500000000001 41.769 53.537000000000006 42.256 C 53.48500000000001 42.282000000000004 53.43200000000001 42.308 53.37700000000001 42.331 C 52.07900000000001 42.892 50.88500000000001 43.536 49.79700000000001 44.264 C 48.70100000000001 44.997 47.68700000000001 45.827000000000005 46.753000000000014 46.751000000000005 C 45.82800000000002 47.68600000000001 44.99800000000001 48.702000000000005 44.26400000000002 49.79900000000001 C 43.536000000000016 50.88600000000001 42.89200000000002 52.07900000000001 42.332000000000015 53.37700000000001 L 42.32500000000002 53.37400000000001 C 41.804000000000016 54.61100000000001 41.408000000000015 55.91300000000001 41.134000000000015 57.27900000000001 C 40.866000000000014 58.62300000000001 40.73200000000001 60.00900000000001 40.73200000000001 61.44000000000001 C 40.73200000000001 62.871000000000016 40.866000000000014 64.257 41.134000000000015 65.60200000000002 C 41.39500000000002 66.90800000000002 41.77000000000002 68.15500000000002 42.25700000000001 69.34300000000002 C 42.283000000000015 69.39600000000002 42.30900000000001 69.44800000000002 42.332000000000015 69.50300000000001 C 42.89200000000002 70.80100000000002 43.536000000000016 71.99300000000001 44.26300000000001 73.08000000000001 C 44.997000000000014 74.177 45.82700000000001 75.19300000000001 46.753000000000014 76.12800000000001 C 47.68700000000001 77.05300000000001 48.70200000000001 77.88200000000002 49.798000000000016 78.61500000000001 C 50.88500000000002 79.343 52.07800000000002 79.98700000000001 53.37700000000002 80.54800000000002 L 53.37400000000002 80.55500000000002 C 54.612000000000016 81.07600000000002 55.91300000000002 81.47300000000003 57.27900000000002 81.74500000000002 C 58.62300000000002 82.01400000000002 60.01000000000002 82.14700000000002 61.44100000000002 82.14700000000002 C 62.872000000000014 82.14700000000002 64.25900000000001 82.01300000000002 65.60300000000002 81.74500000000002 C 66.91000000000003 81.48400000000002 68.15600000000002 81.11000000000001 69.34500000000003 80.62300000000002 C 69.39600000000003 80.59700000000002 69.45000000000003 80.57100000000001 69.50500000000002 80.54800000000002 C 70.80200000000002 79.98700000000001 71.99500000000002 79.34300000000002 73.08300000000003 78.61500000000001 C 74.17900000000003 77.882 75.19400000000003 77.052 76.12800000000003 76.12800000000001 C 77.05400000000003 75.19300000000001 77.88400000000003 74.17800000000001 78.61800000000002 73.08100000000002 C 79.34500000000003 71.99400000000001 79.98900000000002 70.80100000000002 80.54800000000003 69.50300000000001 L 80.55600000000003 69.50600000000001 C 81.07700000000003 68.26900000000002 81.47400000000003 66.96700000000001 81.74700000000003 65.60200000000002 C 82.01500000000003 64.25700000000002 82.14900000000003 62.871000000000016 82.14900000000003 61.44000000000002 C 82.14900000000003 60.00900000000002 82.01400000000002 58.62300000000002 81.74700000000003 57.27900000000002 C 81.48500000000003 55.972000000000016 81.11200000000002 54.72600000000002 80.62400000000002 53.53700000000002 C 80.59700000000002 53.48500000000002 80.57300000000002 53.43200000000002 80.54800000000003 53.377000000000024 C 79.98900000000003 52.07900000000002 79.34500000000003 50.886000000000024 78.61600000000003 49.79900000000002 C 77.88400000000003 48.70200000000002 77.05300000000003 47.68600000000002 76.12800000000003 46.752000000000024 C 75.19400000000003 45.828000000000024 74.17900000000003 44.998000000000026 73.08300000000003 44.26500000000002 C 71.99500000000003 43.53700000000002 70.80200000000002 42.89300000000002 69.50500000000002 42.33200000000002 L 69.50700000000002 42.325000000000024 C 68.27 41.804 66.969 41.407 65.602 41.134 L 65.602 41.134 z" stroke-linecap="round" />
</g>
<g transform="matrix(NaN NaN NaN NaN 0 0)"  >
<g style=""   >
</g>
</g>
<g transform="matrix(NaN NaN NaN NaN 0 0)"  >
<g style=""   >
</g>
</g>
<g transform="matrix(NaN NaN NaN NaN 0 0)"  >
<g style=""   >
</g>
</g>
</svg>