<?xml version="1.0" encoding="UTF-8" standalone="no" ?>
<!DOCTYPE svg PUBLIC "-//W3C//DTD SVG 1.1//EN" "http://www.w3.org/Graphics/SVG/1.1/DTD/svg11.dtd">
<svg xmlns="http://www.w3.org/2000/svg" xmlns:xlink="http://www.w3.org/1999/xlink" version="1.1" width="1080" height="1080" viewBox="0 0 1080 1080" xml:space="preserve">
<desc>Created with Fabric.js 5.2.4</desc>
<defs>
</defs>
<g transform="matrix(1 0 0 1 540 540)" id="4620dc3e-a3e0-44e6-89fe-0b27f2fc8f3d"  >
<rect style="stroke: none; stroke-width: 1; stroke-dasharray: none; stroke-linecap: butt; stroke-dashoffset: 0; stroke-linejoin: miter; stroke-miterlimit: 4; fill: rgb(255,255,255); fill-rule: nonzero; opacity: 1; visibility: hidden;" vector-effect="non-scaling-stroke"  x="-540" y="-540" rx="0" ry="0" width="1080" height="1080" />
</g>
<g transform="matrix(1 0 0 1 540 540)" id="a047ec9e-e256-4c37-9005-503afd52d6c6"  >
</g>
<g transform="matrix(1 0 0 1 542 542)" id="28f47523-4e99-4aa7-b6b4-6a8d0a0d20b9"  >
<path style="stroke: rgb(0,0,0); stroke-width: 4; stroke-dasharray: none; stroke-linecap: butt; stroke-dashoffset: 0; stroke-linejoin: miter; stroke-miterlimit: 4; fill: rgb(255,165,0); fill-rule: nonzero; opacity: 1;" vector-effect="non-scaling-stroke"  transform=" translate(-256, -170.69)" d="M 3.62 302.83 C 1.62 302.83 0 301.2 0 299.21 C 0 298.16999999999996 0.14 297.15999999999997 0.39 296.15 C 6.1899999999999995 250.14999999999998 42.22 237.87999999999997 67.77 231.24999999999997 C 80.55 227.92999999999998 112.36 215.30999999999997 99.69 197.95 C 92.59 188.20999999999998 86.14 181.37 79.71 171.07999999999998 C 75.05999999999999 164.21999999999997 72.61 158.08999999999997 72.61 153.19 C 72.61 147.96 75.38 141.84 80.94 140.45 C 80.21 129.92 79.96 116.07 80.45 104.79999999999998 C 82.22 85.44999999999999 96.09 71.18999999999998 114.02000000000001 64.86999999999998 C 121.12 62.16999999999997 117.69000000000001 51.379999999999974 125.52000000000001 51.14999999999998 C 143.9 50.64999999999998 174.03 66.33999999999997 185.8 79.06999999999998 C 192.65 86.41999999999997 197.06 96.21999999999997 197.8 109.20999999999998 L 197.06 141.67 C 200.49 142.64999999999998 202.7 144.85999999999999 203.68 148.29 C 204.66 152.20999999999998 203.68 157.6 200.25 165.2 C 200.25 165.44 200 165.44 200 165.67999999999998 C 192.44 178.14999999999998 184.56 186.40999999999997 175.9 197.95 C 172.04 203.10999999999999 172.8 208.04 176 212.48 C 171.49 215.10999999999999 167.09 218.14 162.85 221.7 C 145.97 235.86999999999998 132.95999999999998 257.01 128.45999999999998 290.76 L 127.94999999999997 293.74 C 127.69999999999997 295.67 127.56999999999998 297.25 127.56999999999998 298.44 C 127.56999999999998 299.93 127.68999999999998 301.4 127.92999999999998 302.83 L 3.62 302.83 z M 443.3 224.75 C 448.11 229.57 446.34000000000003 237.02 441.32 241.12 C 436.46999999999997 245.03 427.7 246.92000000000002 422.69 242.32 C 417.64 237.62 419.65 230.06 424.49 225.93 C 429.15000000000003 222 438.37 219.84 443.3 224.75 z M 415.29 286.24 L 419.41 286.24 L 419.41 259.41 L 411.6 259.41 C 411.6 248.77000000000004 431.13 255.68000000000004 445.48 252.05 L 445.48 286.24 L 450.92 286.24 L 450.92 297.65000000000003 L 415.29 297.65000000000003 L 415.29 286.24 z M 431.26000000000005 179.91000000000003 C 453.52000000000004 179.91000000000003 473.72 188.96000000000004 488.33000000000004 203.58000000000004 C 502.96000000000004 218.17000000000004 512 238.36000000000004 512 260.65000000000003 C 512 282.94000000000005 502.96 303.13000000000005 488.35 317.74 L 487.87 318.19 C 473.29 332.53 453.3 341.38 431.26 341.38 C 408.96999999999997 341.38 388.78 332.34 374.18 317.74 L 373.73 317.25 C 359.38 302.67 350.52000000000004 282.67 350.52000000000004 260.65 C 350.52000000000004 238.37999999999997 359.57000000000005 218.2 374.17 203.59999999999997 C 388.78000000000003 188.94999999999996 408.98 179.90999999999997 431.26 179.90999999999997 z M 476.58000000000004 215.31000000000003 C 465.01000000000005 203.73000000000002 448.99000000000007 196.56000000000003 431.26000000000005 196.56000000000003 C 413.57000000000005 196.56000000000003 397.53000000000003 203.74000000000004 385.94000000000005 215.33000000000004 C 374.3500000000001 226.90000000000003 367.1700000000001 242.94000000000005 367.1700000000001 260.65000000000003 C 367.1700000000001 278.18000000000006 374.18000000000006 294.05 385.5400000000001 305.59000000000003 L 385.94000000000005 305.97 C 397.5400000000001 317.56 413.56000000000006 324.73 431.26000000000005 324.73 C 448.78000000000003 324.73 464.65000000000003 317.72 476.21000000000004 306.37 L 476.59000000000003 305.97 C 488.18 294.38000000000005 495.35 278.35 495.35 260.65000000000003 C 495.35 242.96000000000004 488.17 226.92000000000004 476.58000000000004 215.31000000000003 z M 153.93000000000006 302.86 C 151.49000000000007 302.86 149.51000000000008 300.89 149.51000000000008 298.44 C 149.51000000000008 297.19 149.69000000000008 295.94 149.99000000000007 294.71 C 157.07000000000008 238.57999999999998 190.72000000000006 226.38 221.86000000000007 218.36999999999998 C 236.82000000000008 214.52999999999997 266.63000000000005 199.51999999999998 263.0200000000001 180.16999999999996 C 255.4800000000001 173.17999999999995 248.00000000000009 163.51999999999995 246.6800000000001 149.10999999999996 L 245.7800000000001 149.12999999999997 C 243.69000000000008 149.09999999999997 241.66000000000008 148.61999999999998 239.79000000000008 147.54999999999995 C 235.6200000000001 145.18999999999994 233.35000000000008 140.64999999999995 232.25000000000009 135.47999999999996 C 229.9300000000001 119.68999999999997 229.35000000000008 111.61999999999996 237.7700000000001 108.09999999999997 L 237.8400000000001 108.06999999999996 C 236.8000000000001 88.58999999999996 240.0900000000001 59.929999999999964 220.0800000000001 53.86999999999996 C 259.5800000000001 5.05999999999996 305.1200000000001 -21.500000000000043 339.3200000000001 21.92999999999996 C 377.4100000000001 23.92999999999996 394.4100000000001 77.88999999999996 370.7500000000001 108.09999999999997 L 369.7500000000001 108.09999999999997 C 378.17000000000013 111.61999999999996 376.9000000000001 120.67999999999996 375.2800000000001 135.47999999999996 C 374.18000000000006 140.64999999999995 371.9000000000001 145.18999999999997 367.7300000000001 147.54999999999995 C 365.86000000000007 148.61999999999995 363.8300000000001 149.09999999999997 361.74000000000007 149.12999999999997 L 360.83000000000004 149.10999999999996 C 359.53000000000003 163.51999999999995 352.02000000000004 173.17999999999995 344.48 180.16999999999996 C 343.26 186.71999999999997 345.86 192.74999999999997 350.41 198.03999999999996 C 336.99 215.33999999999997 328.99 237.06999999999996 328.99 260.65 C 328.99 275.7 332.25 290 338.1 302.85999999999996 L 153.93 302.85999999999996 z" stroke-linecap="round" />
</g>
<g transform="matrix(NaN NaN NaN NaN 0 0)"  >
<g style=""   >
</g>
</g>
</svg>