<?xml version="1.0" encoding="UTF-8" standalone="no" ?>
<!DOCTYPE svg PUBLIC "-//W3C//DTD SVG 1.1//EN" "http://www.w3.org/Graphics/SVG/1.1/DTD/svg11.dtd">
<svg xmlns="http://www.w3.org/2000/svg" xmlns:xlink="http://www.w3.org/1999/xlink" version="1.1" width="1080" height="1080" viewBox="0 0 1080 1080" xml:space="preserve">
<desc>Created with Fabric.js 5.2.4</desc>
<defs>
</defs>
<g transform="matrix(1 0 0 1 540 540)" id="cd6b8b55-778d-488f-b4e4-923f1777c2e4"  >
<rect style="stroke: none; stroke-width: 1; stroke-dasharray: none; stroke-linecap: butt; stroke-dashoffset: 0; stroke-linejoin: miter; stroke-miterlimit: 4; fill: rgb(255,255,255); fill-rule: nonzero; opacity: 1; visibility: hidden;" vector-effect="non-scaling-stroke"  x="-540" y="-540" rx="0" ry="0" width="1080" height="1080" />
</g>
<g transform="matrix(1 0 0 1 540 540)" id="028343f4-c3bd-4f08-a63a-43686cdf957c"  >
</g>
<g transform="matrix(1 0 0 1 540 540)" id="e5b711bd-9549-419a-84d0-c1ac25859bcc"  >
<path style="stroke: rgb(0,0,0); stroke-width: 0; stroke-dasharray: none; stroke-linecap: butt; stroke-dashoffset: 0; stroke-linejoin: miter; stroke-miterlimit: 4; fill: rgb(255,165,0); fill-rule: nonzero; opacity: 1;" vector-effect="non-scaling-stroke"  transform=" translate(-61.43, -53.87)" d="M 21.13 83.86 L 101.38 83.86 L 113.91999999999999 49.13 C 114.57 49.34 115.26999999999998 49.45 115.98999999999998 49.45 C 119.78999999999998 49.45 122.87999999999998 46.370000000000005 122.87999999999998 42.56 C 122.87999999999998 38.760000000000005 119.79999999999998 35.67 115.98999999999998 35.67 C 112.18999999999998 35.67 109.09999999999998 38.75 109.09999999999998 42.56 C 109.09999999999998 44.06 109.57999999999998 45.440000000000005 110.38999999999999 46.57 L 103.26999999999998 52.43 C 93.29999999999998 60.629999999999995 87.04999999999998 56.83 88.99999999999999 44.09 L 90.09999999999998 36.92 C 90.47999999999998 36.99 90.87999999999998 37.02 91.27999999999999 37.02 C 95.07999999999998 37.02 98.16999999999999 33.940000000000005 98.16999999999999 30.130000000000003 C 98.16999999999999 26.330000000000002 95.08999999999999 23.240000000000002 91.27999999999999 23.240000000000002 C 87.47999999999999 23.240000000000002 84.38999999999999 26.32 84.38999999999999 30.130000000000003 C 84.38999999999999 32.300000000000004 85.39999999999999 34.24 86.96999999999998 35.5 L 85.25999999999999 38.2 C 76.88 50.78 70.69999999999999 45.96 68.22999999999999 33.53 L 63.81999999999999 13.220000000000002 C 66.28999999999999 12.170000000000002 68.02999999999999 9.730000000000002 68.02999999999999 6.870000000000003 C 68.02999999999999 3.070000000000003 64.94999999999999 -0.01999999999999691 61.139999999999986 -0.01999999999999691 C 57.33999999999999 -0.01999999999999691 54.249999999999986 3.060000000000003 54.249999999999986 6.870000000000003 C 54.249999999999986 10.050000000000002 56.399999999999984 12.720000000000002 59.319999999999986 13.520000000000003 L 56.46 25.1 C 53.980000000000004 35.71 51.01 56.85 37.58 38.83 L 35.39 35.85 C 37.12 34.6 38.25 32.56 38.25 30.26 C 38.25 26.46 35.17 23.37 31.36 23.37 C 27.56 23.37 24.47 26.450000000000003 24.47 30.26 C 24.47 34.06 27.549999999999997 37.15 31.36 37.15 C 31.89 37.15 32.41 37.089999999999996 32.91 36.97 L 33.37 41.65 C 34.269999999999996 48.04 35.419999999999995 56.69 28.08 56.28 C 24.439999999999998 56.08 23.07 54.84 20.29 52.86 L 12.349999999999998 47.23 C 13.239999999999998 46.07 13.769999999999998 44.62 13.769999999999998 43.04 C 13.769999999999998 39.24 10.689999999999998 36.15 6.879999999999998 36.15 C 3.0799999999999983 36.15 -0.010000000000001563 39.23 -0.010000000000001563 43.04 C -0.010000000000001563 46.85 3.0699999999999985 49.93 6.879999999999998 49.93 C 7.7799999999999985 49.93 8.629999999999999 49.76 9.419999999999998 49.45 L 21.13 83.86 L 21.13 83.86 z M 21.07 93.47 L 101.58000000000001 93.47 L 101.58000000000001 107.75999999999999 L 21.07 107.75999999999999 L 21.07 93.47 L 21.07 93.47 z" stroke-linecap="round" />
</g>
<g transform="matrix(NaN NaN NaN NaN 0 0)"  >
<g style=""   >
</g>
</g>
</svg>