<?xml version="1.0" encoding="UTF-8" standalone="no" ?>
<!DOCTYPE svg PUBLIC "-//W3C//DTD SVG 1.1//EN" "http://www.w3.org/Graphics/SVG/1.1/DTD/svg11.dtd">
<svg xmlns="http://www.w3.org/2000/svg" xmlns:xlink="http://www.w3.org/1999/xlink" version="1.1" width="1080" height="1080" viewBox="0 0 1080 1080" xml:space="preserve">
<desc>Created with Fabric.js 5.2.4</desc>
<defs>
</defs>
<rect x="0" y="0" width="100%" height="100%" fill="transparent"></rect>
<g transform="matrix(1 0 0 1 540 540)" id="b288262a-8ccb-4097-a6d9-d4b443d368e7"  >
<rect style="stroke: none; stroke-width: 1; stroke-dasharray: none; stroke-linecap: butt; stroke-dashoffset: 0; stroke-linejoin: miter; stroke-miterlimit: 4; fill: rgb(255,255,255); fill-rule: nonzero; opacity: 1; visibility: hidden;" vector-effect="non-scaling-stroke"  x="-540" y="-540" rx="0" ry="0" width="1080" height="1080" />
</g>
<g transform="matrix(1 0 0 1 540 540)" id="6580747d-fb46-480c-a716-b2f4924e8149"  >
</g>
<g transform="matrix(1 0 0 1 545 545)" id="6f131e3a-1bda-4338-80e0-233f1063ace3"  >
<path style="stroke: rgb(255,165,0); stroke-width: 10; stroke-dasharray: none; stroke-linecap: butt; stroke-dashoffset: 0; stroke-linejoin: miter; stroke-miterlimit: 4; fill: rgb(255,165,0); fill-rule: nonzero; opacity: 1;" vector-effect="non-scaling-stroke"  transform=" translate(-61.44, -53.84)" d="M 61.43 13.53 C 66.76 7.51 72.8 3.69 78.96 1.69 C 85.44 -0.41000000000000014 92.03 -0.45999999999999996 98.05 1.0899999999999999 C 104.1 2.6399999999999997 109.57 5.81 113.78999999999999 10.12 C 119.36999999999999 15.82 122.88 23.479999999999997 122.88 32.14 C 122.88 45.84 116.28 58.89 105.46 71.50999999999999 C 95.32 83.33999999999999 81.41 94.85999999999999 65.85 106.23999999999998 C 63.269999999999996 108.12999999999998 59.86999999999999 108.11999999999998 57.349999999999994 106.45999999999998 L 57.349999999999994 106.46999999999998 L 57.31999999999999 106.44999999999999 L 57.31999999999999 106.46 L 57.29999999999999 106.44999999999999 L 57.08999999999999 106.29999999999998 C 52.62999999999999 103.37999999999998 48.33999999999999 100.38999999999999 44.28999999999999 97.35999999999999 C 40.239999999999995 94.32999999999998 36.279999999999994 91.13999999999999 32.459999999999994 87.79999999999998 C 12.58 70.42 0 51.4 0 32.13 C 0 23.330000000000002 3.44 15.690000000000001 8.93 10.050000000000004 C 13.18 5.680000000000004 18.66 2.5400000000000045 24.72 1.020000000000005 L 24.72 1.02 C 30.71 -0.48 37.29 -0.3799999999999999 43.769999999999996 1.71 C 49.99 3.71 56.09 7.54 61.43 13.53 L 61.43 13.53 L 61.43 13.53 z M 83.51 15.87 C 78.02 17.65 72.51 22.02 68 29.78 C 67.37 30.970000000000002 66.4 31.990000000000002 65.15 32.71 C 61.59 34.76 57.040000000000006 33.53 55.00000000000001 29.97 C 50.50000000000001 22.15 44.86000000000001 17.7 39.220000000000006 15.889999999999999 C 35.510000000000005 14.7 31.760000000000005 14.639999999999999 28.340000000000003 15.489999999999998 L 28.340000000000003 15.489999999999998 L 28.320000000000004 15.489999999999998 C 24.970000000000002 16.319999999999997 21.950000000000003 18.049999999999997 19.620000000000005 20.439999999999998 C 16.750000000000004 23.389999999999997 14.950000000000005 27.439999999999998 14.950000000000005 32.14 C 14.950000000000005 46.67 25.540000000000006 61.96 42.25000000000001 76.57 C 45.53000000000001 79.44 49.20000000000001 82.38999999999999 53.2 85.38 C 55.81 87.33999999999999 58.550000000000004 89.3 61.24 91.11999999999999 C 74.27 81.35999999999999 85.77000000000001 71.58999999999999 94.14 61.81999999999999 C 102.72 51.81999999999999 107.94 41.89999999999999 107.94 32.13999999999999 C 107.94 27.589999999999993 106.1 23.559999999999995 103.17999999999999 20.569999999999993 C 100.8 18.14999999999999 97.75 16.369999999999994 94.38 15.509999999999994 C 90.98 14.63 87.23 14.67 83.51 15.87 L 83.51 15.87 L 83.51 15.87 z" stroke-linecap="round" />
</g>
<g transform="matrix(NaN NaN NaN NaN 0 0)"  >
<g style=""   >
</g>
</g>
<g transform="matrix(NaN NaN NaN NaN 0 0)"  >
<g style=""   >
</g>
</g>
</svg>