<?xml version="1.0" encoding="UTF-8" standalone="no" ?>
<!DOCTYPE svg PUBLIC "-//W3C//DTD SVG 1.1//EN" "http://www.w3.org/Graphics/SVG/1.1/DTD/svg11.dtd">
<svg xmlns="http://www.w3.org/2000/svg" xmlns:xlink="http://www.w3.org/1999/xlink" version="1.1" width="1080" height="1080" viewBox="0 0 1080 1080" xml:space="preserve">
<desc>Created with Fabric.js 5.2.4</desc>
<defs>
</defs>
<g transform="matrix(1 0 0 1 540 540)" id="e3f8c34e-ec50-4ff1-ae8b-f208eb7f443d"  >
</g>
<g transform="matrix(1 0 0 1 540 540)" id="c410835a-3ef2-4ee2-8fd6-3a11224e8db7"  >
<rect style="stroke: none; stroke-width: 1; stroke-dasharray: none; stroke-linecap: butt; stroke-dashoffset: 0; stroke-linejoin: miter; stroke-miterlimit: 4; fill: rgb(255,255,255); fill-rule: nonzero; opacity: 1; visibility: hidden;" vector-effect="non-scaling-stroke"  x="-540" y="-540" rx="0" ry="0" width="1080" height="1080" />
</g>
<g transform="matrix(1 0 0 1 541 541)"  >
<path style="stroke: rgb(255,165,0); stroke-width: 2; stroke-dasharray: none; stroke-linecap: butt; stroke-dashoffset: 0; stroke-linejoin: miter; stroke-miterlimit: 4; fill: rgb(255,165,0); fill-rule: nonzero; opacity: 1;" vector-effect="non-scaling-stroke"  transform=" translate(-52.39, -61.44)" d="M 57.75 48.1 C 73.51 46.25 86.28 57.52 86.28 73.28 C 86.28 89.04 73.51 103.31 57.75 105.16 C 41.99 107.00999999999999 29.22 95.74 29.22 79.97999999999999 C 29.22 64.21999999999998 41.99 49.95 57.75 48.1 L 57.75 48.1 z M 15.18 17.31 L 3.39 12.93 L 7.83 24.689999999999998 L 19.59 31.049999999999997 L 15.18 17.31 L 15.18 17.31 z M 10.62 106.78 C 10.25 106.57000000000001 10.11 106.09 10.33 105.72 C 10.55 105.35 11.02 105.21 11.39 105.42999999999999 L 18.91 109.72 C 19.28 109.92999999999999 19.42 110.41 19.2 110.78 C 18.99 111.15 18.509999999999998 111.29 18.14 111.07000000000001 L 10.62 106.78 L 10.62 106.78 z M 10.77 100.99 C 10.4 100.78 10.27 100.3 10.48 99.92 C 10.690000000000001 99.55 11.17 99.42 11.55 99.63 L 18.93 103.85 C 19.3 104.05999999999999 19.43 104.53999999999999 19.22 104.91999999999999 C 19.009999999999998 105.28999999999999 18.529999999999998 105.41999999999999 18.15 105.21 L 10.77 100.99 L 10.77 100.99 z M 10.11 63.4 L 10.27 50.39 L 18.53 53.87 L 18.53 67.71 L 10.11 63.4 L 10.11 63.4 z M 23.05 37.01 L 23.560000000000002 120.07999999999998 L 90.91 104.87999999999998 L 90.08 38.48999999999998 L 44.79 44.43999999999998 L 31.99 46.11999999999998 C 31.569999999999997 46.19999999999998 31.119999999999997 46.069999999999986 30.81 45.72999999999998 L 23.05 37.01 L 23.05 37.01 z M 21.53 122.59 L 6.17 110.81 C 5.83 110.55 5.66 110.15 5.68 109.75 L 5.58 25.8 L 0.11 11.33 C -0.020000000000000004 11.040000000000001 -0.039999999999999994 10.7 0.08 10.38 C 0.32 9.73 1.04 9.4 1.69 9.64 L 3.87 10.450000000000001 L 3.67 9.71 L 3.65 9.610000000000001 C 3.42 8.71 3.4499999999999997 7.9700000000000015 3.6999999999999997 7.370000000000001 C 4.01 6.62 4.59 6.14 5.4 5.9 C 5.5 5.87 5.61 5.8500000000000005 5.71 5.8500000000000005 L 65.78 0.010000000000000675 C 65.84 6.74807432154978e-16 65.9 6.74807432154978e-16 65.96000000000001 0.010000000000000675 C 66.44000000000001 0.030000000000000675 66.88000000000001 0.16000000000000067 67.26 0.43000000000000066 C 67.68 0.7300000000000006 67.97 1.1700000000000006 68.09 1.8000000000000007 L 69.83 14.290000000000001 L 77.17 0.6500000000000004 C 77.46000000000001 0.10000000000000031 78.11 -0.13999999999999968 78.68 0.060000000000000386 L 99.23 5.670000000000001 C 99.89 5.8500000000000005 100.28 6.540000000000001 100.10000000000001 7.200000000000001 L 100.05000000000001 7.350000000000001 L 92.80000000000001 24.82 L 104.34 34.49 C 104.87 34.93 104.94 35.72 104.5 36.25 C 104.27 36.52 103.96 36.67 103.64 36.69 L 92.57 38.14 L 93.41999999999999 105.84 C 93.42999999999999 106.44 93.00999999999999 106.94 92.44999999999999 107.07000000000001 L 22.6 122.85 C 22.21 122.94 21.82 122.83 21.53 122.59 L 21.53 122.59 z M 8.07 27.66 L 8.17 109.19 L 21.060000000000002 119.08 L 20.480000000000004 34.36 L 8.07 27.66 L 8.07 27.66 z M 16.61 15.17 C 16.95 15.3 17.24 15.58 17.36 15.95 C 18.11 18.23 18.849999999999998 20.509999999999998 19.58 22.78 L 67.61 16.520000000000003 L 65.66 2.520000000000003 L 6 8.33 C 5.96 8.44 5.97 8.65 6.06 8.98 L 6.68 11.290000000000001 L 16.61 15.17 L 16.61 15.17 z M 32.24 43.57 L 91.15 35.84 L 91.17 35.84 L 100.57000000000001 34.61000000000001 L 90.92 26.53000000000001 L 24.239999999999995 34.60000000000001 L 32.24 43.57 L 32.24 43.57 z M 67.79 23.17 L 67.79 19.020000000000003 L 20.390000000000008 25.200000000000003 L 22.44000000000001 31.750000000000004 L 22.52 32 L 22.599999999999998 32.26 L 67.78999999999999 26.479999999999997 L 67.78999999999999 23.17 L 67.79 23.17 z M 70.29 26.19 L 85.56 24.560000000000002 L 70.29 19.35 L 70.29 26.19 L 70.29 26.19 z M 71.23 16.93 L 90.59 23.64 L 97.2 7.710000000000001 L 78.89 2.710000000000001 L 71.23 16.93 L 71.23 16.93 z M 57.75 72.68 C 59.93 72.42 61.7 73.98 61.7 76.16000000000001 C 61.7 78.34000000000002 59.93 80.32000000000001 57.75 80.57000000000001 C 55.57 80.83000000000001 53.8 79.26 53.8 77.08000000000001 C 53.8 74.91 55.57 72.94 57.75 72.68 L 57.75 72.68 z M 57.75 68.44 C 62.28 67.91 65.94 71.14999999999999 65.94 75.67 C 65.94 80.19 62.269999999999996 84.29 57.75 84.82000000000001 C 53.230000000000004 85.35000000000001 49.56 82.11000000000001 49.56 77.59 C 49.56 73.07 53.22 68.97 57.75 68.44 L 57.75 68.44 z M 57.75 66.62 C 63.28 65.97 67.76 69.93 67.76 75.46000000000001 C 67.76 80.99000000000001 63.28 86 57.75000000000001 86.65 C 52.220000000000006 87.30000000000001 47.74000000000001 83.34 47.74000000000001 77.82000000000001 C 47.74 72.28 52.22 67.27 57.75 66.62 L 57.75 66.62 z" stroke-linecap="round" />
</g>
<g transform="matrix(NaN NaN NaN NaN 0 0)"  >
<g style=""   >
</g>
</g>
<g transform="matrix(NaN NaN NaN NaN 0 0)"  >
<g style=""   >
</g>
</g>
<g transform="matrix(NaN NaN NaN NaN 0 0)"  >
<g style=""   >
</g>
</g>
</svg>