<?xml version="1.0" encoding="UTF-8" standalone="no" ?>
<!DOCTYPE svg PUBLIC "-//W3C//DTD SVG 1.1//EN" "http://www.w3.org/Graphics/SVG/1.1/DTD/svg11.dtd">
<svg xmlns="http://www.w3.org/2000/svg" xmlns:xlink="http://www.w3.org/1999/xlink" version="1.1" width="1080" height="1080" viewBox="0 0 1080 1080" xml:space="preserve">
<desc>Created with Fabric.js 5.2.4</desc>
<defs>
</defs>
<g transform="matrix(1 0 0 1 540 540)" id="1053fceb-715b-4312-86eb-7c4a95f401de"  >
<rect style="stroke: none; stroke-width: 1; stroke-dasharray: none; stroke-linecap: butt; stroke-dashoffset: 0; stroke-linejoin: miter; stroke-miterlimit: 4; fill: rgb(255,255,255); fill-rule: nonzero; opacity: 1; visibility: hidden;" vector-effect="non-scaling-stroke"  x="-540" y="-540" rx="0" ry="0" width="1080" height="1080" />
</g>
<g transform="matrix(1 0 0 1 540 540)" id="9a855045-5706-4bb7-b37b-20e47ef95f16"  >
</g>
<g transform="matrix(1 0 0 1 540 540)" id="17602f24-1598-487d-a175-c6519ea53846"  >
<path style="stroke: rgb(0,0,0); stroke-width: 0; stroke-dasharray: none; stroke-linecap: butt; stroke-dashoffset: 0; stroke-linejoin: miter; stroke-miterlimit: 4; fill: rgb(255,165,0); fill-rule: nonzero; opacity: 1;" vector-effect="non-scaling-stroke"  transform=" translate(-61.44, -60.81)" d="M 73.12 0 L 88.6 0 L 88.6 5.17 C 127.34 14.04 131.76999999999998 32.64 109.3 61.96 C 111.69 32.870000000000005 108.75999999999999 26.630000000000003 88.6 25.28 L 88.6 98.82000000000001 C 88.64 99.21000000000001 88.64999999999999 99.60000000000001 88.64999999999999 100.00000000000001 C 88.64999999999999 109.56000000000002 78.61999999999999 119.04000000000002 66.25 121.18 C 53.88 123.32000000000001 43.85 117.30000000000001 43.85 107.74000000000001 C 43.85 94.70000000000002 61.760000000000005 83.38000000000001 73.11 87.37 L 73.12 0 L 73.12 0 z M 5.69 73.78 C 2.55 73.78 0 71.23 0 68.09 C 0 64.95 2.55 62.400000000000006 5.69 62.400000000000006 L 53.32 62.400000000000006 C 56.46 62.400000000000006 59.01 64.95 59.01 68.09 C 59.01 71.23 56.46 73.78 53.32 73.78 L 5.69 73.78 L 5.69 73.78 z M 5.69 46.14 C 2.55 46.14 0 43.59 0 40.44 C 0 37.3 2.55 34.75 5.69 34.75 L 53.32 34.75 C 56.46 34.75 59.01 37.3 59.01 40.44 C 59.01 43.58 56.46 46.129999999999995 53.32 46.129999999999995 L 5.69 46.129999999999995 L 5.69 46.14 z M 5.69 18.5 C 2.55 18.5 0 15.95 0 12.8 C 0 9.66 2.55 7.11 5.69 7.11 L 53.32 7.11 C 56.46 7.11 59.01 9.66 59.01 12.8 C 59.01 15.940000000000001 56.46 18.490000000000002 53.32 18.490000000000002 L 5.69 18.490000000000002 L 5.69 18.5 z" stroke-linecap="round" />
</g>
<g transform="matrix(NaN NaN NaN NaN 0 0)"  >
<g style=""   >
</g>
</g>
<g transform="matrix(NaN NaN NaN NaN 0 0)"  >
<g style=""   >
</g>
</g>
<g transform="matrix(NaN NaN NaN NaN 0 0)"  >
<g style=""   >
</g>
</g>
<g transform="matrix(NaN NaN NaN NaN 0 0)"  >
<g style=""   >
</g>
</g>
<g transform="matrix(NaN NaN NaN NaN 0 0)"  >
<g style=""   >
</g>
</g>
</svg>