<?xml version="1.0" encoding="UTF-8" standalone="no" ?>
<!DOCTYPE svg PUBLIC "-//W3C//DTD SVG 1.1//EN" "http://www.w3.org/Graphics/SVG/1.1/DTD/svg11.dtd">
<svg xmlns="http://www.w3.org/2000/svg" xmlns:xlink="http://www.w3.org/1999/xlink" version="1.1" width="1080" height="1080" viewBox="0 0 1080 1080" xml:space="preserve">
<desc>Created with Fabric.js 5.2.4</desc>
<defs>
</defs>
<g transform="matrix(1 0 0 1 540 540)" id="53125131-924d-4d26-9ce8-f58831527efb"  >
<rect style="stroke: none; stroke-width: 1; stroke-dasharray: none; stroke-linecap: butt; stroke-dashoffset: 0; stroke-linejoin: miter; stroke-miterlimit: 4; fill: rgb(255,255,255); fill-rule: nonzero; opacity: 1; visibility: hidden;" vector-effect="non-scaling-stroke"  x="-540" y="-540" rx="0" ry="0" width="1080" height="1080" />
</g>
<g transform="matrix(1 0 0 1 540 540)" id="adbdc225-d1b3-4fa3-8ba7-687f2035720f"  >
</g>
<g transform="matrix(1 0 0 1 540 540)" id="61c97d70-945a-44dc-9a46-2c63ec0f6a06"  >
<path style="stroke: rgb(0,0,0); stroke-width: 0; stroke-dasharray: none; stroke-linecap: butt; stroke-dashoffset: 0; stroke-linejoin: miter; stroke-miterlimit: 4; fill: rgb(255,165,0); fill-rule: nonzero; opacity: 1;" vector-effect="non-scaling-stroke"  transform=" translate(-189.5, -255.77)" d="M 107.83 0 L 302.04 0 C 323.21000000000004 0 342.45000000000005 8.68 356.38 22.61 C 370.33 36.56 379 55.82 379 76.96 L 379 434.58 C 379 455.64 370.31 474.87 356.37 488.84 L 356.27 488.94 C 342.29999999999995 502.87 323.08 511.54 302.03999999999996 511.54 L 107.83 511.54 C 86.68 511.54 67.42 502.87 53.47 488.92 C 39.54 474.99 30.86 455.75 30.86 434.58000000000004 L 30.86 360.6 L 68.41 360.6 L 68.41 434.58000000000004 C 68.41 445.39000000000004 72.86 455.25000000000006 80 462.39000000000004 C 87.15 469.54 97.02 473.99000000000007 107.83 473.99000000000007 L 302.04 473.99000000000007 C 312.87 473.99000000000007 322.74 469.56000000000006 329.84000000000003 462.45000000000005 C 337.02000000000004 455.28000000000003 341.45000000000005 445.41 341.45000000000005 434.58000000000004 L 341.45000000000005 76.96 C 341.45000000000005 66.16 337.00000000000006 56.28999999999999 329.85 49.13999999999999 C 322.72 41.99999999999999 312.85 37.55 302.04 37.55 L 107.83 37.55 C 96.99 37.55 87.13 41.989999999999995 79.99 49.129999999999995 C 72.85 56.26 68.41 66.13 68.41 76.96 L 68.41 150.92 L 30.86 150.92 L 30.86 76.96 C 30.86 55.78999999999999 39.519999999999996 36.53999999999999 53.46 22.599999999999994 C 67.4 8.66 86.65 0 107.83 0 z M 166.89 161.72 L 263.90999999999997 253.32 L 162.14 349.74 L 136.33999999999997 322.62 L 187.27999999999997 274.34000000000003 L 0 274.66 L 0 237.27000000000004 L 192.03 236.94000000000003 L 141.23000000000002 188.98000000000002 L 166.89000000000001 161.72000000000003 z" stroke-linecap="round" />
</g>
<g transform="matrix(NaN NaN NaN NaN 0 0)"  >
<g style=""   >
</g>
</g>
</svg>