<svg xmlns="http://www.w3.org/2000/svg" xmlns:xlink="http://www.w3.org/1999/xlink" width="470" height="468" id="music"><defs><filter id="a" width="111.8%" height="111.9%" x="-5.9%" y="-3.9%" filterUnits="objectBoundingBox"><feOffset dy="5" in="SourceAlpha" result="shadowOffsetOuter1"></feOffset><feGaussianBlur in="shadowOffsetOuter1" result="shadowBlurOuter1" stdDeviation="4"></feGaussianBlur><feColorMatrix in="shadowBlurOuter1" result="shadowMatrixOuter1" values="0 0 0 0 0 0 0 0 0 0 0 0 0 0 0 0 0 0 0.078125 0"></feColorMatrix><feOffset dy="4" in="SourceAlpha" result="shadowOffsetOuter2"></feOffset><feGaussianBlur in="shadowOffsetOuter2" result="shadowBlurOuter2" stdDeviation="5.5"></feGaussianBlur><feColorMatrix in="shadowBlurOuter2" result="shadowMatrixOuter2" values="0 0 0 0 0 0 0 0 0 0 0 0 0 0 0 0 0 0 0.210824275 0"></feColorMatrix><feMerge><feMergeNode in="shadowMatrixOuter1"></feMergeNode><feMergeNode in="shadowMatrixOuter2"></feMergeNode></feMerge></filter><filter id="d" width="156.4%" height="156.6%" x="-28.2%" y="-28.3%" filterUnits="objectBoundingBox"><feGaussianBlur in="SourceGraphic" stdDeviation="27.522"></feGaussianBlur></filter><radialGradient id="c" cx="52.486%" cy="50%" r="34.084%" fx="52.486%" fy="50%" gradientTransform="matrix(0 -1 1.01383 0 .018 1.025)"><stop offset="0%" stop-color="#51ADFB"></stop><stop offset="100%" stop-color="#52ADFB"></stop></radialGradient><path id="b" d="M9.635 132.808C24.782 59.782 71.388 19.109 144.085 6.822c53.74-9.081 107.5-9.196 161.15.255 74.852 13.185 119.85 56.23 134.185 130.36 11.075 57.29 11.249 115.191-.174 172.427-15.324 72.52-63.132 117.285-135.561 129.527-53.74 9.08-107.5 9.195-161.15-.255-74.852-13.186-120.05-58.38-134.384-132.509-11.64-57.668-10.52-115.935 1.484-173.82z"></path></defs><g fill="none" fill-rule="evenodd"><g transform="translate(11 7)"><use fill="#000" filter="url(#a)" xlink:href="#b"></use><use xlink:href="#b"></use></g><path fill="url(#c)" d="M84.297 169.804c9.9-47.73 40.362-74.314 87.878-82.345 35.125-5.936 70.263-6.01 105.328.167 48.925 8.618 78.335 36.752 87.705 85.203 7.239 37.446 7.352 75.29-.114 112.7-10.016 47.4-41.263 76.659-88.603 84.66-35.126 5.935-70.263 6.01-105.329-.167-48.924-8.618-78.465-38.157-87.835-86.608-7.607-37.692-6.875-75.776.97-113.61z" filter="url(#d)" transform="translate(11 7)"></path><path fill="#FFF" d="M315.448 148.225C284.997 117.441 229.554 90 229.554 90v210.53c0 10.094-3.11 20.03-9.289 28.014-6.017 7.774-15.663 14.843-30.845 14.843-17.79 0-27.298-10.526-27.298-27.23 0-16.703 16.714-28.173 34.167-31.614 3.707-.731 9.143-1.074 9.143-1.074V264.53a64.584 64.584 0 0 0-3.29-.09c-30.287 0-60.305 24.193-60.305 52.63s18.322 45.687 48.61 45.687c30.042 0 58.017-21.622 58.017-69.063 0-47.438.097-172.973.097-172.973 12.469 6.984 32.407 19.213 49.927 34.706 27.997 24.759-9.357 66.25-9.357 66.25l14.619 12.792s44.224-53.362 11.698-86.245"></path></g></svg>